<?xml version="1.0" standalone="no"?>
<!DOCTYPE svg PUBLIC "-//W3C//DTD SVG 20010904//EN"
 "http://www.w3.org/TR/2001/REC-SVG-20010904/DTD/svg10.dtd">
<svg version="1.0" xmlns="http://www.w3.org/2000/svg"
 width="512.000000pt" height="512.000000pt" viewBox="0 0 512.000000 512.000000"
 preserveAspectRatio="xMidYMid meet">
<metadata>
Created by potrace 1.11, written by Peter Selinger 2001-2013
</metadata>
<g transform="translate(0.000000,512.000000) scale(0.100000,-0.100000)"
fill="#000000" stroke="none">
<path d="M1529 5086 c-2 -2 -86 -6 -186 -10 -100 -4 -188 -8 -195 -11 -7 -2
-35 -6 -63 -9 -239 -27 -508 -159 -690 -341 -197 -195 -329 -442 -368 -689
-21 -126 -21 -177 -22 -1466 0 -1065 5 -1445 18 -1467 3 -4 8 -26 11 -47 4
-22 20 -79 36 -128 144 -429 516 -760 948 -842 190 -37 357 -41 1532 -41 901
0 1337 6 1420 20 14 2 48 6 75 10 484 60 919 464 1036 964 31 131 34 272 34
1516 0 1306 -3 1426 -39 1567 -90 354 -334 660 -655 823 -171 87 -322 124
-571 141 -92 6 -2315 16 -2321 10z"/>
</g>
</svg>
